<svg width="64" height="44" viewBox="0 0 64 44" fill="none" xmlns="http://www.w3.org/2000/svg">
<path d="M17.4253 19.6387C16.6146 19.6387 15.9746 20.372 15.9746 21.2667C15.9746 22.1613 16.6288 22.8947 17.4253 22.8947C18.2359 22.8947 18.8759 22.1613 18.8759 21.2667C18.8902 20.372 18.2359 19.6387 17.4253 19.6387ZM22.6164 19.6387C21.8057 19.6387 21.1657 20.372 21.1657 21.2667C21.1657 22.1613 21.8199 22.8947 22.6164 22.8947C23.4271 22.8947 24.0671 22.1613 24.0671 21.2667C24.0671 20.372 23.4271 19.6387 22.6164 19.6387Z" fill="white"/>
<path d="M29.529 7.3335H10.4712C8.86411 7.3335 7.55566 8.68283 7.55566 10.3548V30.1842C7.55566 31.8562 8.86411 33.2055 10.4712 33.2055H26.5992L25.8454 30.4922L27.6659 32.2375L29.3868 33.8802L32.4446 36.6668V10.3548C32.4446 8.68283 31.1361 7.3335 29.529 7.3335ZM24.0392 26.4882C24.0392 26.4882 23.5272 25.8575 23.1006 25.3002C24.9637 24.7575 25.6748 23.5548 25.6748 23.5548C25.0917 23.9508 24.537 24.2295 24.0392 24.4202C23.3281 24.7282 22.6454 24.9335 21.977 25.0508C20.6117 25.3148 19.3601 25.2415 18.2934 25.0362C17.4828 24.8748 16.7859 24.6402 16.2028 24.4055C15.8757 24.2735 15.5201 24.1122 15.1646 23.9068C15.1219 23.8775 15.0792 23.8628 15.0366 23.8335C15.0081 23.8188 14.9939 23.8042 14.9797 23.7895C14.7237 23.6428 14.5814 23.5402 14.5814 23.5402C14.5814 23.5402 15.2641 24.7135 17.0703 25.2708C16.6437 25.8282 16.1174 26.4882 16.1174 26.4882C12.9743 26.3855 11.7797 24.2588 11.7797 24.2588C11.7797 19.5362 13.8277 15.7082 13.8277 15.7082C15.8757 14.1242 17.8241 14.1682 17.8241 14.1682L17.9663 14.3442C15.4063 15.1068 14.2259 16.2655 14.2259 16.2655C14.2259 16.2655 14.5388 16.0895 15.065 15.8402C16.5868 15.1508 17.7957 14.9602 18.2934 14.9162C18.3788 14.9015 18.4499 14.8868 18.5352 14.8868C19.4028 14.7695 20.3841 14.7402 21.4081 14.8575C22.7592 15.0188 24.2099 15.4295 25.689 16.2655C25.689 16.2655 24.5654 15.1655 22.1477 14.4028L22.3468 14.1682C22.3468 14.1682 24.2952 14.1242 26.3432 15.7082C26.3432 15.7082 28.3912 19.5362 28.3912 24.2588C28.3912 24.2588 27.1823 26.3855 24.0392 26.4882Z" fill="white"/>
</svg>
